<?xml version="1.0" encoding="UTF-8" standalone="no"?>
<svg
   xmlns:svg="http://www.w3.org/2000/svg"
   xmlns="http://www.w3.org/2000/svg"
   xmlns:sodipodi="http://sodipodi.sourceforge.net/DTD/sodipodi-0.dtd"
   xmlns:inkscape="http://www.inkscape.org/namespaces/inkscape"
   sodipodi:docname="class-solutions.svg"
   inkscape:version="1.1-dev (60faa23c, 2020-06-06)"
   id="svg6"
   version="1.1"
   viewBox="0 0 64.000001 64"
   height="64mm"
   width="64mm">
  <defs
     id="defs2">
    <inkscape:path-effect
       effect="spiro"
       id="path-effect1394"
       is_visible="true"
       lpeversion="1" />
    <inkscape:path-effect
       lpeversion="1"
       is_visible="true"
       id="path-effect1385"
       effect="spiro" />
    <inkscape:path-effect
       effect="spiro"
       id="path-effect1375"
       is_visible="true"
       lpeversion="1" />
    <inkscape:path-effect
       effect="spiro"
       id="path-effect1370"
       is_visible="true"
       lpeversion="1" />
    <inkscape:path-effect
       lpeversion="1"
       is_visible="true"
       id="path-effect1366"
       effect="spiro" />
  </defs>
  <sodipodi:namedview
     inkscape:window-maximized="1"
     inkscape:window-y="23"
     inkscape:window-x="0"
     inkscape:window-height="1035"
     inkscape:window-width="2560"
     fit-margin-bottom="0"
     fit-margin-right="0"
     fit-margin-left="0"
     fit-margin-top="0"
     showgrid="false"
     inkscape:current-layer="layer1"
     inkscape:document-units="mm"
     inkscape:cy="111.72513"
     inkscape:cx="305.13455"
     inkscape:zoom="2"
     inkscape:pageshadow="2"
     inkscape:pageopacity="0.0"
     borderopacity="1.0"
     bordercolor="#666666"
     pagecolor="#ffffff"
     id="base" />
  <g
     transform="translate(156.88795,28.683859)"
     id="layer1"
     inkscape:groupmode="layer"
     inkscape:label="Layer 1">
    <rect
       y="-28.683859"
       x="-156.88795"
       height="64"
       width="64"
       id="rect1438"
       style="opacity:0.999;fill:none;fill-opacity:1;fill-rule:evenodd;stroke:none;stroke-width:1.48841;stroke-linejoin:round;stroke-miterlimit:4;stroke-dasharray:none;stroke-opacity:1" />
    <g
       transform="matrix(1.8888645,0,0,1.8888645,55.234501,2.3207029)"
       id="g1436">
      <path
         d="m -95.963871,-14.091132 -5.623949,3.175 -2.87114,1.6205733 -2.56987,1.451073 13.126333,7.66878396 2.6448,-1.50068496 2.79363,-1.585434 5.86114,-3.325894 -0.007,-0.312127 -0.007,-0.312123 -6.00635,-3.4395843 -6.006353,-3.439583 h -0.667141 z"
         style="color:#000000;fill:#139a68;stroke-width:0.264583"
         id="path1390" />
      <path
         d="m -83.083517,-3.4137467 -3.0794,1.76785 -3.07889,1.76836696 0.0987,0.296106 0.0987,0.296621 2.75797,1.63762804 2.75745,1.637626 0.46303,0.02119 0.46302,0.02119 V 0.87953526 -2.2742767 c 0.007,-0.01725 0.0108,-0.02973 0.0176,-0.04651 v -0.889352 c -0.0296,-0.01775 -0.0595,-0.03531 -0.0982,-0.05013 z"
         style="fill:#139a68;fill-opacity:1;stroke:none;stroke-width:0.264583;stroke-opacity:1"
         id="path1358" />
      <path
         id="path1360"
         style="fill:#139a68;fill-opacity:1;stroke:none;stroke-width:0.264583;stroke-opacity:1"
         d="m -88.914677,11.570572 6.17967,-3.5745657 0.0698,-0.328038 0.0698,-0.328038 -12.37293,-7.14375104 -12.372933,-7.14374996 h -0.39688 -0.39687 l 0.0265,0.33073 0.0265,0.330729 0.0397,7.10228896 0.0397,7.10229104 6.15156,3.5846247 6.151563,3.584626 0.30261,0.02871 0.30262,0.02871 6.17959,-3.574566 v 0" />
    </g>
  </g>
</svg>
