<?xml version="1.0" encoding="UTF-8" standalone="no"?>
<svg
   xmlns:svg="http://www.w3.org/2000/svg"
   xmlns="http://www.w3.org/2000/svg"
   xmlns:sodipodi="http://sodipodi.sourceforge.net/DTD/sodipodi-0.dtd"
   xmlns:inkscape="http://www.inkscape.org/namespaces/inkscape"
   sodipodi:docname="gft.svg"
   inkscape:version="1.1-dev (60faa23c, 2020-06-06)"
   id="svg875"
   version="1.1"
   viewBox="0 0 58.145813 53.610168"
   height="53.610168mm"
   width="58.145813mm">
  <defs
     id="defs871" />
  <sodipodi:namedview
     inkscape:window-maximized="0"
     inkscape:window-y="23"
     inkscape:window-x="0"
     inkscape:window-height="1035"
     inkscape:window-width="1252"
     fit-margin-bottom="0"
     fit-margin-right="0"
     fit-margin-left="0"
     fit-margin-top="0"
     showgrid="false"
     inkscape:current-layer="layer1"
     inkscape:document-units="mm"
     inkscape:cy="444.16769"
     inkscape:cx="35.596138"
     inkscape:zoom="0.35"
     inkscape:pageshadow="2"
     inkscape:pageopacity="0.0"
     borderopacity="1.0"
     bordercolor="#666666"
     pagecolor="#ffffff"
     id="base" />
  <g
     transform="translate(-96.415188,-30.647298)"
     id="layer1"
     inkscape:groupmode="layer"
     inkscape:label="Layer 1">
    <path
       id="rect839"
       style="opacity:0.999;fill:#003d82;fill-opacity:1;fill-rule:evenodd;stroke:#000000;stroke-width:0;stroke-linejoin:round;stroke-miterlimit:4;stroke-dasharray:none"
       d="M 96.415189,30.647298 V 44.884673 H 154.561 V 30.647298 Z m 7.649151,20.605461 c -4.07863,0.04589 -6.95625,3.307283 -6.181541,7.392313 0.45608,2.404891 2.130871,4.138496 4.629691,4.791956 1.09981,0.2876 3.44974,0.04305 4.45451,-0.463539 0.46041,-0.232148 1.16458,-0.728363 1.56477,-1.102773 0.6933,-0.648671 0.7276,-0.79761 0.7276,-3.15433 v -2.473234 l -2.71198,0.07545 -2.71198,0.07545 -0.0822,0.992188 -0.0816,0.992188 h 1.47071 1.47123 v 1.025776 c 0,1.278221 -0.44193,1.66392 -2.08825,1.822112 -2.3044,0.221429 -3.77113,-0.945571 -4.14755,-3.29954 -0.22933,-1.434181 0.59601,-3.32359 1.70171,-3.89537 1.09809,-0.56784 3.14164,-0.528681 4.27364,0.08165 0.90503,0.48794 0.93522,0.487523 1.64951,-0.01809 0.40018,-0.28328 0.7276,-0.659241 0.7276,-0.835091 0,-0.52762 -2.10617,-1.726479 -3.36413,-1.915129 -0.44492,-0.06672 -0.87981,-0.09673 -1.30173,-0.09198 z m 35.09295,0.236678 v 5.962944 5.962944 l 6.01927,-0.0708 6.01927,-0.07131 v -5.820834 -5.820833 l -6.01927,-0.07131 z m -27.25209,0.0098 v 5.953125 5.953125 h 1.32292 1.32292 v -2.38125 -2.38125 h 3.175 3.175 v -1.190625 -1.190625 h -3.175 -3.175 V 54.93882 53.615904 h 3.43958 3.43958 V 52.55757 51.499237 h -4.7625 z m 10.58334,0 v 1.058333 1.058334 h 1.5875 1.5875 v 4.894792 4.894791 h 1.32291 1.32292 v -4.894791 -4.894792 h 1.5875 1.5875 V 52.55757 51.499237 h -4.49792 z M 96.415189,70.020089 V 84.257464 H 154.561 V 70.020089 Z" />
  </g>
</svg>
