<?xml version="1.0" encoding="UTF-8" standalone="no"?>
<svg
   xmlns:svg="http://www.w3.org/2000/svg"
   xmlns="http://www.w3.org/2000/svg"
   xmlns:sodipodi="http://sodipodi.sourceforge.net/DTD/sodipodi-0.dtd"
   xmlns:inkscape="http://www.inkscape.org/namespaces/inkscape"
   version="1.1"
   id="svg1074"
   width="64"
   height="64"
   viewBox="0 0 64 64"
   sodipodi:docname="ignilife.svg"
   inkscape:version="1.1-dev (60faa23c, 2020-06-06)">
  <defs
     id="defs1078" />
  <sodipodi:namedview
     pagecolor="#ffffff"
     bordercolor="#666666"
     borderopacity="1"
     objecttolerance="10"
     gridtolerance="10"
     guidetolerance="10"
     inkscape:pageopacity="0"
     inkscape:pageshadow="2"
     inkscape:window-width="1251"
     inkscape:window-height="1035"
     id="namedview1076"
     showgrid="false"
     fit-margin-top="0"
     fit-margin-left="0"
     fit-margin-right="0"
     fit-margin-bottom="0"
     inkscape:zoom="2.674435"
     inkscape:cx="51.583071"
     inkscape:cy="55.860218"
     inkscape:window-x="0"
     inkscape:window-y="23"
     inkscape:window-maximized="0"
     inkscape:current-layer="g1080" />
  <g
     inkscape:groupmode="layer"
     inkscape:label="Image"
     id="g1080"
     transform="translate(65.747521,-28.572576)">
    <path
       style="fill:#000000"
       id="path1143"
       d="" />
    <path
       style="fill:#000000"
       id="path1141"
       d="" />
    <rect
       style="opacity:0.999;fill:#ffffff;fill-opacity:1;fill-rule:evenodd;stroke:#000000;stroke-width:0;stroke-linejoin:round"
       id="rect1163"
       width="64"
       height="64"
       x="-65.74752"
       y="28.572577" />
    <path
       style="fill:#4fc0e8;fill-opacity:1;stroke-width:0.40098"
       d="m -39.569117,92.135583 c -3.981389,-0.89767 -8.842608,-3.488478 -11.909225,-6.347077 -6.008626,-5.601046 -8.968629,-13.089353 -8.402833,-21.25776 0.494645,-7.141188 2.603677,-12.140246 7.139288,-16.922292 4.614823,-4.865569 18.858501,-19.033803 19.137243,-19.035877 0.576178,-0.0044 20.603794,20.726957 21.841478,22.608815 4.9685457,7.55459 5.6047103,18.236681 1.602845,26.914091 -2.732693,5.92538 -9.468722,11.594087 -16.176452,13.613262 -3.118902,0.938858 -9.979832,1.160171 -13.232344,0.426838 z m 12.594609,-14.883189 c 6.680372,-2.787811 10.743222,-9.753155 10.033222,-17.201016 -0.303917,-3.18808 -1.026969,-5.301357 -2.606711,-7.618622 -0.997509,-1.463214 -13.245478,-13.899812 -13.920638,-14.13502 -0.159012,-0.05539 -3.372271,2.931449 -7.140591,6.637432 -8.325697,8.187986 -9.357865,9.860488 -9.690994,15.703062 -0.174527,3.060927 -0.06595,4.031768 0.707528,6.326244 1.876986,5.567975 6.864112,10.215556 12.166314,11.337965 3.07335,0.650592 7.424042,0.213499 10.45187,-1.050045 z m -11.191171,-6.925981 c -4.23045,-2.026112 -6.193876,-5.088332 -6.202477,-9.673566 -0.01231,-6.522078 5.268238,-11.352683 11.677646,-10.682765 3.725307,0.389368 6.397887,2.096986 8.431278,5.387064 1.347161,2.17977 1.503048,6.886925 0.319194,9.638868 -1.21074,2.814452 -3.712599,4.981338 -6.728334,5.827509 -3.281226,0.920667 -4.738855,0.824018 -7.497307,-0.49711 z"
       id="path1145" />
  </g>
</svg>
