<?xml version="1.0" encoding="UTF-8" standalone="no"?>
<svg
   xmlns:svg="http://www.w3.org/2000/svg"
   xmlns="http://www.w3.org/2000/svg"
   xmlns:sodipodi="http://sodipodi.sourceforge.net/DTD/sodipodi-0.dtd"
   xmlns:inkscape="http://www.inkscape.org/namespaces/inkscape"
   sodipodi:docname="indra.svg"
   inkscape:version="1.1-dev (60faa23c, 2020-06-06)"
   id="svg1169"
   version="1.1"
   viewBox="0 0 64.000229 63.99971"
   height="63.99971mm"
   width="64.000229mm">
  <defs
     id="defs1165" />
  <sodipodi:namedview
     inkscape:window-maximized="1"
     inkscape:window-y="23"
     inkscape:window-x="0"
     inkscape:window-height="1035"
     inkscape:window-width="2560"
     fit-margin-bottom="0"
     fit-margin-right="0"
     fit-margin-left="0"
     fit-margin-top="0"
     showgrid="false"
     inkscape:current-layer="layer1"
     inkscape:document-units="mm"
     inkscape:cy="120.60879"
     inkscape:cx="336.4483"
     inkscape:zoom="1.4"
     inkscape:pageshadow="2"
     inkscape:pageopacity="0.0"
     borderopacity="1.0"
     bordercolor="#666666"
     pagecolor="#ffffff"
     id="base" />
  <g
     transform="translate(111.4516,-57.730326)"
     id="layer1"
     inkscape:groupmode="layer"
     inkscape:label="Layer 1">
    <path
       transform="scale(0.26458333)"
       d="m -421.23438,218.19336 v 30.23633 h 120.94532 120.94531 v -30.23633 z m 126.82422,102.64648 -1.73046,1.43555 -1.72852,1.43555 v 2.70117 2.70117 l -8.92969,0.67578 -8.93164,0.67383 -3.72461,1.92773 -3.72461,1.92579 -1.3164,4.88867 -1.31641,4.88867 0.55469,2.05859 0.55469,2.05664 0.73242,3.29102 0.73047,3.29102 2.70703,1.51757 2.70703,1.51563 7.25781,0.7539 7.25586,0.75196 6.65234,0.16797 6.65235,0.16797 2.75195,-0.73829 2.75195,-0.73632 -0.33398,-18.29493 -0.33203,-18.29492 -4.6211,-0.38086 z m 32.79297,8.35157 -5.125,0.79687 -5.125,0.79688 -2.06836,1.55273 -2.06836,1.55469 -1.25781,3.30664 -1.25586,3.30469 v 8.32812 8.32813 l 2.11524,1.23242 2.11718,1.23242 1.81446,0.0195 1.81445,0.0176 2.7207,-0.72852 v 0.002 l 2.72071,-0.72852 v -6.43164 -6.43359 l 1.14648,-3.01563 1.14648,-3.01562 3.38868,-0.38867 3.38867,-0.38868 0.37695,-3.88867 0.375,-3.89062 -3.11133,-0.78125 z m -104.99414,0.26953 -1.91211,0.73242 -1.91406,0.73437 v 13.69141 13.68945 l 2.11719,0.55469 2.11719,0.55274 2.19531,0.14062 2.19531,0.13867 2.33984,-1.24804 2.33985,-1.25196 v -9.0957 -9.09375 l 5.74414,0.36719 5.74609,0.36914 0.98438,9.04687 0.98437,9.04883 0.37695,0.37695 0.37696,0.37696 4.17383,0.67773 4.17187,0.67578 2.16602,-2.16601 2.16797,-2.16602 -0.54688,-9.43359 -0.54492,-9.43164 -2.19727,-2.42774 -2.19531,-2.42578 -4.35547,-1.20898 -4.35351,-1.21094 -11.08789,-0.008 z m -20.56055,0.002 -1.9121,0.73438 -1.91407,0.73242 v 13.6914 13.69141 l 2.11719,0.55273 2.11719,0.55274 2.19531,0.14062 2.19531,0.14063 2.33985,-1.25195 2.33984,-1.25196 V 344.7793 332.36523 l -1.45117,-1.45117 -1.45117,-1.45117 h -3.28711 z m 173.76563,0 -11.08789,0.0293 -11.08984,0.0312 -4.7168,1.09375 -4.71875,1.09375 -2.53906,2.53906 -2.53711,2.53906 v 7.79492 7.79297 l 2.59765,2.59961 2.59961,2.59961 7.07617,0.84961 7.07618,0.84766 9.07226,-0.25586 9.07031,-0.25586 1.51172,-0.13477 v -0.004 l 1.51172,-0.13477 v -13.7793 -13.77929 l -1.91211,-0.73242 z m -84.31836,9.54297 -0.375,5.20703 -0.375,5.20508 -5.75586,0.36914 -5.75781,0.36914 -0.6836,-1.7793 -0.68164,-1.77734 0.39258,-3.42969 0.39258,-3.42773 6.42188,-0.36719 z m 62.75391,0 5.74218,0.36914 5.74024,0.36719 v 4.83789 4.83789 l -5.66992,0.36523 -5.66797,0.36524 -1.41016,-2.63477 -1.41015,-2.63476 1.33789,-2.93555 z m 4.10351,82.375 -1.45117,1.45117 -1.45117,1.45117 v 2.78125 2.78125 h -93.73242 -93.73243 v 30.23633 h 241.89063 v -38.70117 h -25.76172 z"
       style="opacity:0.999;fill:#004450;fill-opacity:1;fill-rule:evenodd;stroke:#000000;stroke-width:0;stroke-linejoin:round"
       id="rect1246" />
    <rect
       y="111.49035"
       x="-61.851521"
       height="2.2396555"
       width="14.400153"
       id="rect1254"
       style="opacity:0.999;fill:#fbbc23;fill-opacity:1;fill-rule:evenodd;stroke:#000000;stroke-width:0;stroke-linejoin:round" />
  </g>
</svg>
